<svg version="1" xmlns="http://www.w3.org/2000/svg" width="666.667" height="666.667" viewBox="0 0 500.000000 500.000000"><path d="M318.3 7.4c-11 2.7-12.2 2.8-18.3 1.6-18-3.3-36.5-3.9-52-1.5-37.6 5.7-76.3 30.1-98.5 62-7.6 10.8-15.6 26.2-17.4 33-.7 2.7-1.9 6.8-2.7 9-1.3 4-4.2 17.2-5 23-.2 1.6-.6 9.5-1 17.5-.7 19.1 1 30.4 8.3 54 1 3 1.8 6.2 1.9 7 .2 1.5 2 5.9 7.1 17 1.4 3 4.1 7.6 5.9 10.3 1.9 2.6 3.4 4.9 3.4 5.2 0 .7 9.8 11.4 20.8 22.4 5.6 5.7 10.1 10.9 9.9 11.4-.2.6-4.4 3.1-9.3 5.6-4.9 2.6-10.3 5.5-11.9 6.6-1.7 1.2-4.1 2.6-5.5 3.2-4.5 2-17 14.4-21.5 21.4-2.5 3.7-4.5 7.1-4.5 7.5 0 .4-1.1 3.5-2.4 6.8-1.3 3.4-2.7 8.8-2.9 12.1-1.3 14.5-2.8 20.1-8.5 32.5-2.9 6.3-4.4 7.8-13.1 13.8-13.6 9.4-42.5 15-77.6 15.2-11.7.1-13.2.3-15.2 2.2-2.8 2.6-1.6 4.8 4.9 8.8 2.5 1.6 9.7 7.7 15.9 13.7C72 469.6 78.5 476.3 85 486.5c6.3 9.8 7 10.5 9.5 10.5 1.3 0 4.4-.9 7-2 2.6-1.1 5.9-2 7.5-2 6.5 0 36-11.1 40.9-15.4.9-.7 3.6-2.2 6.1-3.3 2.5-1.1 5.1-2.7 5.9-3.6.7-1 1.9-1.7 2.6-1.7 2.2 0 16.8-11.5 22.3-17.5 7.3-8 9.3-10.8 14-20 5.9-11.6 8-17.8 9.8-29 4-25.5 4.5-29.3 4.9-34.3.2-2.9.7-5.7 1.1-6.4.4-.6.9-3.6 1.1-6.7.3-3.1.9-6.1 1.3-6.6.4-.6 1-2.7 1.4-4.7.4-2 2.4-6.1 4.6-9 2.1-2.9 4.7-6.4 5.7-7.8 1-1.4 5.4-6.1 9.8-10.5l8-8.1 16.5.4c11.3.2 20-.2 27.5-1.3 14-2 13.3-1.8 17.9-3.9 3.2-1.4 4.7-1.6 7.5-.8 3.7 1.1 11.4 2.6 18.8 3.7 3.4.5 22.4 1.6 26.8 1.5 3.8 0 14-2.1 19-3.8 3.3-1.2 8.3-2.7 11-3.6 7.5-2.2 21.4-8.2 25.4-11.1 2-1.3 5.2-3 7.1-3.6 1.9-.7 5.3-3 7.5-5.1 2.2-2.1 4.3-3.8 4.7-3.8 3.2 0 26.5-25.1 31.4-33.8 2-3.4 4.3-6.8 5.3-7.5 3.7-2.7 10.3-19.1 14.6-36.3 1.8-7.3 3.6-13.7 4-14.3 1.1-1.8.7-47.2-.4-51-.6-1.8-1-3.6-.9-4 .1-.3-.1-1.3-.5-2.1-.8-2.4-2.8-10.2-3.4-13.5-.2-1.7-.8-3.9-1.3-5-.4-1.1-2.7-6.7-5-12.5s-5.4-12.4-6.9-14.7c-1.4-2.3-3.7-6.1-5.1-8.4-2.7-4.6-15.9-21.2-19.5-24.5-7.1-6.6-18.6-16.4-19.3-16.4-.4 0-2.3-1.4-4.2-3.1-1.9-1.7-8.8-5.7-15.2-8.9-6.5-3.1-12.3-6.1-13-6.7-.7-.5-3.3-1.5-5.8-2.2-2.5-.7-6.3-1.9-8.5-2.6-5.6-1.8-14.3-3.3-26.5-4.4-16.3-1.5-26.3-1-39.7 2.3zm47.2 4.6c15.9 2.6 34.9 9.8 51.1 19.2 7.8 4.6 19.4 13.6 24.1 18.8 15.2 16.9 27.1 33.8 30.2 42.8 5 14.2 8.2 22.9 9.6 25.3.8 1.4 1.7 4.6 2.1 7 .4 2.4 1.4 7.5 2.4 11.4 1.3 5.4 1.6 10.8 1.5 23.5-.2 9.1-.6 17.8-.9 19.5-.4 1.6-1.6 7.5-2.7 13-2.7 14.1-7.5 28.7-11.2 34.4-1.8 2.8-4.5 7.1-6.1 9.7-8.1 13-21.7 28.5-29.8 33.9-2.3 1.6-6.1 4.3-8.2 6-6.2 4.7-24.2 14.2-33.1 17.5-12.3 4.5-27.8 6.9-43.3 6.9-12 0-16.3-.5-32.7-3.9-5.4-1.2-11.8-3.5-19-6.9-3.3-1.6-7.6-3.6-9.5-4.5-11.9-5.4-20.9-11.4-31.3-21-8.5-7.9-15.6-16.2-18.7-21.9-.8-1.5-4.3-7.4-7.7-13-3.4-5.6-6.5-11.1-6.9-12.2-.4-1.1-1.8-4.5-3.1-7.5-1.4-3-3-6.9-3.8-8.5-1.7-4.1-6.3-22.4-6.3-25.5 0-1.4-.5-6.1-1.2-10.5-1.3-8.6-.8-28.6.9-34.5.5-1.9 1.5-6.7 2.1-10.5 2.4-14.2 10.4-34 18.8-46.9C252.9 42.9 289.3 18.5 323 13c4.1-.7 8-1.4 8.5-1.5 2.2-.7 29.3-.3 34 .5zm-80.6 3.4l3.3 1.8-10.3 5.9c-14.8 8.3-16.1 8.9-24.6 9.9-8.6 1.1-28.2 7.4-37.2 12-7.7 3.8-22.2 13.9-28.6 19.9-10.2 9.4-21.6 25.8-27.4 39.6-5.9 13.7-9.3 23.4-8.7 24.4.3.4-.1 4.6-.9 9.2-1.8 9.9-2 26.5-.4 34.1 2.9 14.5 5.2 22.2 8.4 29.2 1.9 4.2 3.5 8 3.5 8.5 0 3 14.2 21.8 24.2 31.9 8 8.2 15.4 13.7 27.5 20.3 3.5 1.9 6.3 3.7 6.3 4 0 .8-16.4 6.6-23 8.1-4.6 1-5.2 1-7.3-.9-1.2-1.1-3.6-2.8-5.3-3.6-5.1-2.6-21.5-20.7-27.6-30.6-12.4-20-21.5-42.5-24.7-60.8-2.2-12.4-2.4-30.3-.6-40.8 5.2-31 13.6-51.4 28.9-71 9.1-11.6 23.5-24.8 31.3-28.8 1.7-.9 3.7-2.2 4.5-3 1.5-1.4 17.3-10.7 18.4-10.7.3 0 4.7-1.5 9.8-3.4 7.9-3 19-5.4 31.6-7 8.2-1 25.5.1 28.9 1.8zm11.6 280.5l5 2.5-5 .8c-2.7.4-8.1 1.2-12 1.8-7.6 1.1-21.4 1-22.2-.3-.2-.4 1.3-1.4 3.4-2.3 2.1-.8 4.7-1.9 5.8-2.5 3.1-1.5 15.8-3.7 18-3.2 1.1.3 4.3 1.7 7 3.2z"/><path d="M340.8 45.6c-.3.3-4.6 1.2-9.4 1.9-13.9 2.3-30.6 11.2-42.5 22.7-2.1 2.1-4.3 3.8-4.9 3.8-.6 0-1.8 1.6-2.6 3.6l-1.5 3.7 4.4 4.4c2.5 2.4 6.1 7.8 8.3 12.1 3.5 7.1 9.9 16.7 20.9 31.7 2.4 3.3 4.4 6.6 4.5 7.2 0 2.3 4.6 4.3 10.1 4.6 4.9.2 5.4 0 6.7-2.5.7-1.5 3.2-3.9 5.6-5.3 3.6-2.1 5.5-2.5 12.3-2.5 6.1 0 8.4-.4 9.4-1.6 1-1.2 1.4-8.8 1.7-32.5.2-20.6.8-33.4 1.7-38.1 2-10.6 1.5-11.1-11.5-12.8-8.7-1.1-12.4-1.2-13.2-.4zM442.1 133.1c-1.3.5-6.7 1.6-12 2.5-5.3.8-12.3 1.9-15.6 2.4-3.3.5-10.2 1-15.2 1-8.7 0-9.3.1-10.9 2.5-.8 1.3-1.3 2.8-1 3.3.3.5.6 3.9.7 7.6.1 6.2-.1 7-4.1 13.1-2.4 3.6-5.9 7.9-7.8 9.5-4 3.3-3.8 5.2.8 7.8 1.7.9 7.2 4.6 12.3 8.2 5.1 3.6 12.4 7.8 16.3 9.3 3.8 1.5 8.7 4.1 10.9 5.7 2.2 1.6 4.9 3.5 6 4.1 1.1.6 4.4 4 7.3 7.5 2.9 3.5 6.1 6.4 7.1 6.4.9 0 4.2-2.3 7.3-5 4.7-4.1 6.1-6.2 8.3-12.3 1.5-3.9 3.1-8.1 3.5-9.2 1.7-4.1 2.1-6.1 3.2-13.5 1.3-9.4 1.2-28-.3-36.2-.6-3.5-1.3-7.9-1.6-9.8-.3-1.9-1.2-4.1-2.1-4.8-1.8-1.4-9.6-1.5-13.1-.1zM350.6 134.6c-5.2 1.9-6 2.7-8.6 8.2-1.6 3.3-2.2 6.5-2.2 10.9.1 6.8.7 8.5 6.4 15.8 6.4 8.1 11.5 9.3 20.8 4.7 5.5-2.7 6.6-4.2 11.3-14.9 1.2-2.7-2.8-17.3-5.6-21-4-5-14-6.7-22.1-3.7zM320.6 165.3c-2.7 1.7-6.3 4.1-8 5.2-1.7 1.1-6 4-9.5 6.5-11.7 8.3-14.6 10.1-19.6 12.5-2.7 1.3-7.2 3.9-10 5.9-2.7 1.9-6.9 4.5-9.2 5.7-4.8 2.5-6.3 6.1-3.8 8.8.8 1 1.5 2.5 1.5 3.3 0 2.1 5 11.8 6.1 11.8.5 0 .9.6.9 1.4 0 .7 3.4 5.2 7.6 10 7.1 8.1 16.4 15.5 25.4 20.1 1.9 1 5.1 3 7 4.5 6.5 5.2 14.8 6.1 19.2 2.3.9-.8 2-3.4 2.3-5.6.4-2.3 3-10.5 5.8-18.2 2.7-7.7 6.7-18.7 8.7-24.5 2.1-5.8 4-11.2 4.3-12 .3-.8.8-3 1.1-4.8.3-1.9 1.3-4.9 2.2-6.8 1.6-3.2 1.5-3.6-.1-5.4-1-1.1-3.7-2.3-5.9-2.7-5.2-.7-10.9-6.4-15.1-14.8-1.7-3.3-3.7-6.1-4.5-6.2-.8-.2-3.7 1.2-6.4 3z"/></svg>